<!-- icon666.com - MILLIONS OF FREE VECTOR ICONS --><svg id="Layer_1" enable-background="new 0 0 299.983 299.983" viewBox="0 0 299.983 299.983" xmlns="http://www.w3.org/2000/svg"><g><g><path d="m291.628 45.788-37.386-37.426c-5.381-5.394-12.923-8.362-21.211-8.362-10.906 0-22.124 4.958-30.776 13.603l-178.279 178.299c-.886.859-1.5 1.983-1.771 3.199l-22.038 96.81c-.509 2.208.165 4.534 1.771 6.134 1.249 1.249 2.935 1.937 4.673 1.937.489 0 .985-.046 1.474-.165l96.823-22.025c1.203-.271 2.327-.892 3.206-1.771l178.286-178.278c8.653-8.633 13.597-19.863 13.584-30.77-.001-8.289-2.975-15.811-8.356-21.185zm-224.094 195.955 126.328-126.333 28.087 28.085-115.386 115.372c-13.721-.764-27.598-7.336-39.029-17.124zm-26.392-48.321 115.36-115.368 28.013 28.01-126.323 126.328c-9.753-11.42-16.294-25.273-17.05-38.97zm24.91 47.008c-2.271-2.038-4.434-4.202-6.472-6.472zm99.799-171.726 18.487-18.489 65.446 65.446-18.489 18.487zm-134.119 144.099c8.644 24.789 30.647 46.802 55.434 55.461l-71.777 16.33zm245.321-124.407-17.921 17.919-65.447-65.447 17.916-17.917c6.094-6.094 14.112-9.737 21.43-9.737 3.371 0 8.157.787 11.865 4.495l37.386 37.426c3.708 3.695 4.482 8.474 4.482 11.839.012 7.323-3.63 15.335-9.711 21.422z"></path></g></g><g></g><g></g><g></g><g></g><g></g><g></g><g></g><g></g><g></g><g></g><g></g><g></g><g></g><g></g><g></g></svg>