<!-- icon666.com - MILLIONS OF FREE VECTOR ICONS --><svg id="Layer_2" enable-background="new 0 0 512 512" viewBox="0 0 512 512" xmlns="http://www.w3.org/2000/svg"><g><g><path d="m501.86 213.399c-2.888-16.377-13.446-29.467-27.325-36.25 6.48-14.209 6.24-31.228-2.163-45.783-8.315-14.402-22.714-23.091-38.075-24.718 1.23-15.569-4.817-31.479-17.692-42.282-12.739-10.689-29.241-13.93-44.233-10.205-4.169-15.05-15.292-27.933-31.086-33.681-15.627-5.688-32.242-3.089-45.056 5.539-9.064-12.718-23.923-21.019-40.73-21.019-16.63 0-31.354 8.125-40.444 20.615-12.868-8.85-29.67-11.568-45.463-5.82-15.627 5.688-26.684 18.359-30.955 33.205-15.119-3.915-31.837-.723-44.712 10.081-12.739 10.689-18.796 26.378-17.731 41.789-15.546 1.492-30.164 10.209-38.568 24.765-8.315 14.402-8.64 31.216-2.369 45.333-14.098 6.719-24.853 19.911-27.772 36.462-2.888 16.377 2.557 32.289 13.279 43.409-10.95 11.136-16.545 27.21-13.626 43.762 2.888 16.377 13.446 29.467 27.325 36.25-6.48 14.209-6.24 31.228 2.163 45.783 8.315 14.402 22.714 23.091 38.075 24.718-1.23 15.569 4.817 31.479 17.692 42.282 12.739 10.689 29.241 13.93 44.233 10.205 4.169 15.05 15.292 27.933 31.086 33.681 15.627 5.688 32.242 3.089 45.056-5.539 9.065 12.718 23.924 21.019 40.731 21.019 16.63 0 31.354-8.125 40.444-20.615 12.868 8.85 29.67 11.568 45.463 5.82 15.627-5.688 26.684-18.359 30.954-33.204 15.118 3.915 31.837.723 44.712-10.081 12.739-10.689 18.796-26.378 17.731-41.789 15.546-1.492 30.164-10.209 38.568-24.765 8.315-14.402 8.64-31.216 2.369-45.333 14.098-6.719 24.853-19.91 27.772-36.462 2.888-16.377-2.557-32.289-13.279-43.409 10.95-11.137 16.545-27.211 13.626-43.763z" fill="#80d6fb" style="fill: rgb(107, 255, 124);"></path><g><circle cx="255.5" cy="256" fill="#edeff1" r="174" style="fill: rgb(255, 255, 255);"></circle></g></g><g><path d="m230.5 354.426-84.213-84.213 42.426-42.426 41.787 41.787 105.787-105.787 42.426 42.426z" fill="#80d6fb" style="fill: rgb(107, 255, 124);"></path></g></g></svg>