<svg xmlns="http://www.w3.org/2000/svg" width="200" height="20" viewBox="0 0 200 20"><path d="M5.59 15.2H3.05V6.96H0v-2.1h8.64v2.1H5.59v8.26Zm15.81.35c-3.35 0-5.86-2.26-5.86-5.55 0-3.32 2.51-5.5 5.86-5.5 3.35 0 5.89 2.18 5.89 5.5 0 3.29-2.52 5.55-5.89 5.55Zm0-8.78c-1.86 0-3.1 1.39-3.1 3.23 0 1.83 1.25 3.27 3.1 3.27s3.13-1.42 3.13-3.27c0-1.86-1.25-3.23-3.13-3.23Zm23.85-1.92h4.37c1.7 0 3.8.5 3.8 2.69 0 1.13-.7 1.89-1.74 2.2v.05c1.22.2 2.2 1.07 2.2 2.43 0 2.45-2.4 2.99-4.75 2.99h-3.88V4.85Zm2.44 4.23h1.77c.83 0 1.5-.39 1.5-1.17 0-.76-.65-1.1-1.66-1.1h-1.61v2.27Zm0 4.15h1.79c.91 0 1.8-.34 1.8-1.27 0-.9-.77-1.24-1.82-1.24H47.7v2.51Zm14.14 1.97V4.86h7.76v2.09h-5.28V9h4.46v1.92h-4.46v2.2h5.46v2.09h-7.94ZM87.74 4.85h4.37c1.69 0 3.8.5 3.8 2.69 0 1.13-.7 1.89-1.74 2.2v.05c1.21.2 2.2 1.07 2.2 2.43 0 2.45-2.4 2.99-4.75 2.99h-3.88V4.85Zm2.44 4.23h1.77c.83 0 1.5-.39 1.5-1.17 0-.76-.65-1.1-1.66-1.1h-1.61v2.27Zm0 4.15h1.8c.9 0 1.8-.34 1.8-1.27 0-.9-.77-1.24-1.82-1.24h-1.78v2.51Zm16.76-.16h4.29v2.14h-6.91V4.85h2.62v8.22Zm17.05 2.48c-3.35 0-5.85-2.26-5.85-5.55 0-3.32 2.5-5.5 5.85-5.5 3.36 0 5.89 2.18 5.89 5.5 0 3.29-2.53 5.55-5.89 5.55Zm0-8.78c-1.86 0-3.1 1.39-3.1 3.23 0 1.83 1.25 3.27 3.1 3.27s3.13-1.42 3.13-3.27c0-1.86-1.25-3.23-3.13-3.23Zm19.74.79a3.29 3.29 0 0 0-2.2-.97c-.96 0-1.44.45-1.44.96 0 1.57 5.33 1.24 5.33 4.55 0 2.14-2.02 3.45-4.17 3.45a6.5 6.5 0 0 1-4.12-1.58l1.56-1.68a3.86 3.86 0 0 0 2.59 1.16c.86 0 1.58-.46 1.58-1.11 0-1.6-5.34-1.23-5.34-4.6 0-2.06 1.92-3.24 4.01-3.24 1.31 0 2.8.52 3.75 1.48l-1.55 1.58Zm15.2 0a3.29 3.29 0 0 0-2.2-.97c-.96 0-1.44.45-1.44.96 0 1.57 5.33 1.24 5.33 4.55 0 2.14-2.02 3.45-4.17 3.45a6.5 6.5 0 0 1-4.12-1.58l1.55-1.68a3.86 3.86 0 0 0 2.6 1.16c.86 0 1.58-.46 1.58-1.11 0-1.6-5.34-1.23-5.34-4.6 0-2.06 1.92-3.24 4.01-3.24 1.31 0 2.8.52 3.75 1.48l-1.55 1.58Zm15.15 7.99c-3.35 0-5.86-2.26-5.86-5.55 0-3.32 2.5-5.5 5.86-5.5 3.35 0 5.88 2.18 5.88 5.5 0 3.29-2.52 5.55-5.88 5.55Zm0-8.78c-1.87 0-3.1 1.39-3.1 3.23 0 1.83 1.24 3.27 3.1 3.27 1.85 0 3.13-1.42 3.13-3.27 0-1.86-1.25-3.23-3.13-3.23Zm19.88 4.85h.06l2.41-6.77H200V15.2h-2.48l.05-7.25h-.05l-2.77 7.25H193l-2.73-7.26h-.07l.1 7.26h-2.4V4.85h3.5l2.55 6.77Z"></path></svg>